<svg version="1.1" viewBox="0.0 0.0 600.0 371.0" fill="none" stroke="none" stroke-linecap="square" stroke-miterlimit="10" width="600" height="371" xmlns:xlink="http://www.w3.org/1999/xlink" xmlns="http://www.w3.org/2000/svg"><path fill="#ffffff" d="M0 0L600.0 0L600.0 371.0L0 371.0L0 0Z" fill-rule="nonzero"/><path fill="#f7cb4d" d="M300.0 18.55C302.31644 18.55 304.6326 18.598211 306.94702 18.694601L303.4735 102.0973C302.3163 102.0491 301.1582 102.025 300.0 102.025Z" fill-rule="nonzero"/><path fill="#cc0000" d="M306.94702 18.694601C374.90903 21.525045 434.35843 65.30449 457.22968 129.36502L378.61484 157.43251C367.17923 125.402245 337.45453 103.51252 303.4735 102.0973Z" fill-rule="nonzero"/><path fill="#6aa84f" d="M295.81064 18.602571C297.20682 18.567526 298.6034 18.55 300.0 18.55L300.0 102.025C299.3017 102.025 298.60342 102.03376 297.90533 102.051285Z" fill-rule="nonzero"/><path fill="#8e7cc3" d="M263.52255 22.58377C274.12997 20.208735 284.944 18.87534 295.81064 18.602571L297.90533 102.051285C292.472 102.18767 287.06497 102.85437 281.76126 104.041885Z" fill-rule="nonzero"/><path fill="#34a853" d="M262.32233 22.857151C262.72208 22.764551 263.12213 22.673424 263.52255 22.58377L281.76126 104.041885C281.56107 104.08671 281.36102 104.13228 281.16116 104.17857Z" fill-rule="nonzero"/><path fill="#6fa8dc" d="M457.22968 129.36502C480.52432 194.61153 461.10162 267.46533 408.4179 312.45615C355.7342 357.44693 280.73804 365.22485 219.94283 332.00308C159.1476 298.78128 125.18761 231.46385 134.59694 162.82559C144.00627 94.18733 194.8295 38.49247 262.32233 22.857151L281.16116 104.17857C247.41475 111.99623 222.00313 139.84366 217.29846 174.1628C212.5938 208.48192 229.5738 242.14064 259.9714 258.75153C290.36902 275.36243 327.8671 271.47348 354.20895 248.97807C380.5508 226.48267 390.26215 190.05576 378.61484 157.43251Z" fill-rule="nonzero"/><path fill="#1a1a1a" d="M20.3 23.471874L20.3 24.378124Q20.7375 23.83125 21.2375 23.565624Q21.7375 23.3 22.425 23.3Q23.159374 23.3 23.76875 23.64375Q24.39375 23.971874 24.721874 24.58125Q25.065624 25.190624 25.065624 25.8625Q25.065624 26.925 24.3 27.675Q23.55 28.425 22.440624 28.425Q21.1125 28.425 20.3 27.346874L20.3 30.315624L21.4875 30.315624Q21.675 30.315624 21.7375 30.378124Q21.815624 30.45625 21.815624 30.565624Q21.815624 30.675 21.7375 30.7375Q21.675 30.815624 21.4875 30.815624L19.14375 30.815624Q18.971874 30.815624 18.89375 30.7375Q18.815624 30.675 18.815624 30.565624Q18.815624 30.45625 18.89375 30.378124Q18.971874 30.315624 19.14375 30.315624L19.8 30.315624L19.8 23.971874L19.14375 23.971874Q18.971874 23.971874 18.89375 23.909374Q18.815624 23.83125 18.815624 23.721874Q18.815624 23.6125 18.89375 23.55Q18.971874 23.471874 19.14375 23.471874L20.3 23.471874ZM24.565624 25.8625Q24.565624 25.003124 23.940624 24.409374Q23.33125 23.8 22.440624 23.8Q21.534374 23.8 20.909374 24.409374Q20.3 25.01875 20.3 25.8625Q20.3 26.70625 20.909374 27.315624Q21.534374 27.925 22.440624 27.925Q23.315624 27.925 23.940624 27.33125Q24.565624 26.721874 24.565624 25.8625ZM28.565624 23.471874L28.565624 24.721874Q29.51875 23.846874 29.9875 23.596874Q30.471874 23.346874 30.878124 23.346874Q31.315624 23.346874 31.690624 23.64375Q32.08125 23.940624 32.08125 24.096874Q32.08125 24.20625 32.003124 24.284374Q31.925 24.346874 31.815624 24.346874Q31.76875 24.346874 31.721874 24.33125Q31.675 24.315624 31.565624 24.20625Q31.3625 24.003124 31.20625 23.925Q31.065624 23.846874 30.909374 23.846874Q30.596874 23.846874 30.128124 24.1125Q29.675 24.3625 28.565624 25.3625L28.565624 28.05L30.7375 28.05Q30.925 28.05 31.003124 28.128124Q31.08125 28.190624 31.08125 28.3Q31.08125 28.409374 31.003124 28.4875Q30.925 28.55 30.7375 28.55L26.878124 28.55Q26.70625 28.55 26.628124 28.4875Q26.55 28.409374 26.55 28.315624Q26.55 28.20625 26.628124 28.14375Q26.70625 28.08125 26.878124 28.08125L28.065624 28.08125L28.065624 23.971874L27.159374 23.971874Q26.9875 23.971874 26.909374 23.909374Q26.83125 23.83125 26.83125 23.721874Q26.83125 23.6125 26.909374 23.55Q26.9875 23.471874 27.159374 23.471874L28.565624 23.471874ZM38.815624 26.128124L33.8 26.128124Q33.925 27.08125 34.596874 27.675Q35.26875 28.253124 36.253124 28.253124Q36.815624 28.253124 37.409374 28.08125Q38.01875 27.89375 38.39375 27.58125Q38.503124 27.503124 38.596874 27.503124Q38.690624 27.503124 38.753124 27.58125Q38.83125 27.64375 38.83125 27.753124Q38.83125 27.846874 38.7375 27.940624Q38.45625 28.2375 37.7375 28.4875Q37.01875 28.7375 36.253124 28.7375Q34.9875 28.7375 34.14375 27.909374Q33.3 27.08125 33.3 25.909374Q33.3 24.83125 34.096874 24.065624Q34.89375 23.3 36.065624 23.3Q37.26875 23.3 38.05 24.096874Q38.83125 24.878124 38.815624 26.128124ZM38.315624 25.628124Q38.175 24.815624 37.55 24.315624Q36.925 23.8 36.065624 23.8Q35.20625 23.8 34.58125 24.3Q33.95625 24.8 33.8 25.628124L38.315624 25.628124ZM41.3 23.471874L41.3 24.378124Q41.7375 23.83125 42.2375 23.565624Q42.7375 23.3 43.425 23.3Q44.159374 23.3 44.76875 23.64375Q45.39375 23.971874 45.721874 24.58125Q46.065624 25.190624 46.065624 25.8625Q46.065624 26.925 45.3 27.675Q44.55 28.425 43.440624 28.425Q42.1125 28.425 41.3 27.346874L41.3 30.315624L42.4875 30.315624Q42.675 30.315624 42.7375 30.378124Q42.815624 30.45625 42.815624 30.565624Q42.815624 30.675 42.7375 30.7375Q42.675 30.815624 42.4875 30.815624L40.14375 30.815624Q39.971874 30.815624 39.89375 30.7375Q39.815624 30.675 39.815624 30.565624Q39.815624 30.45625 39.89375 30.378124Q39.971874 30.315624 40.14375 30.315624L40.8 30.315624L40.8 23.971874L40.14375 23.971874Q39.971874 23.971874 39.89375 23.909374Q39.815624 23.83125 39.815624 23.721874Q39.815624 23.6125 39.89375 23.55Q39.971874 23.471874 40.14375 23.471874L41.3 23.471874ZM45.565624 25.8625Q45.565624 25.003124 44.940624 24.409374Q44.33125 23.8 43.440624 23.8Q42.534374 23.8 41.909374 24.409374Q41.3 25.01875 41.3 25.8625Q41.3 26.70625 41.909374 27.315624Q42.534374 27.925 43.440624 27.925Q44.315624 27.925 44.940624 27.33125Q45.565624 26.721874 45.565624 25.8625ZM51.565624 28.55L51.565624 27.846874Q50.4875 28.7375 49.26875 28.7375Q48.39375 28.7375 47.89375 28.3Q47.39375 27.846874 47.39375 27.190624Q47.39375 26.4875 48.05 25.95625Q48.70625 25.409374 49.971874 25.409374Q50.3 25.409374 50.690624 25.45625Q51.096874 25.503124 51.565624 25.596874L51.565624 24.8Q51.565624 24.39375 51.190624 24.096874Q50.815624 23.8 50.065624 23.8Q49.4875 23.8 48.45625 24.128124Q48.26875 24.190624 48.221874 24.190624Q48.128124 24.190624 48.05 24.128124Q47.9875 24.05 47.9875 23.940624Q47.9875 23.846874 48.05 23.784374Q48.128124 23.690624 48.70625 23.55Q49.628124 23.3 50.096874 23.3Q51.01875 23.3 51.534374 23.76875Q52.065624 24.221874 52.065624 24.8L52.065624 28.05L52.721874 28.05Q52.909374 28.05 52.971874 28.128124Q53.05 28.190624 53.05 28.3Q53.05 28.409374 52.971874 28.4875Q52.909374 28.55 52.721874 28.55L51.565624 28.55ZM51.565624 26.096874Q51.221874 26.003124 50.83125 25.95625Q50.440624 25.909374 50.01875 25.909374Q48.940624 25.909374 48.346874 26.3625Q47.89375 26.721874 47.89375 27.190624Q47.89375 27.64375 48.2375 27.95625Q48.58125 28.253124 49.253124 28.253124Q49.89375 28.253124 50.440624 28.003124Q50.9875 27.7375 51.565624 27.190624L51.565624 26.096874ZM56.565624 23.471874L56.565624 24.721874Q57.51875 23.846874 57.9875 23.596874Q58.471874 23.346874 58.878124 23.346874Q59.315624 23.346874 59.690624 23.64375Q60.08125 23.940624 60.08125 24.096874Q60.08125 24.20625 60.003124 24.284374Q59.925 24.346874 59.815624 24.346874Q59.76875 24.346874 59.721874 24.33125Q59.675 24.315624 59.565624 24.20625Q59.3625 24.003124 59.20625 23.925Q59.065624 23.846874 58.909374 23.846874Q58.596874 23.846874 58.128124 24.1125Q57.675 24.3625 56.565624 25.3625L56.565624 28.05L58.7375 28.05Q58.925 28.05 59.003124 28.128124Q59.08125 28.190624 59.08125 28.3Q59.08125 28.409374 59.003124 28.4875Q58.925 28.55 58.7375 28.55L54.878124 28.55Q54.70625 28.55 54.628124 28.4875Q54.55 28.409374 54.55 28.315624Q54.55 28.20625 54.628124 28.14375Q54.70625 28.08125 54.878124 28.08125L56.065624 28.08125L56.065624 23.971874L55.159374 23.971874Q54.9875 23.971874 54.909374 23.909374Q54.83125 23.83125 54.83125 23.721874Q54.83125 23.6125 54.909374 23.55Q54.9875 23.471874 55.159374 23.471874L56.565624 23.471874ZM66.81563 26.128124L61.8 26.128124Q61.925 27.08125 62.596874 27.675Q63.26875 28.253124 64.25313 28.253124Q64.81563 28.253124 65.40938 28.08125Q66.01875 27.89375 66.39375 27.58125Q66.50313 27.503124 66.59688 27.503124Q66.69063 27.503124 66.75313 27.58125Q66.83125 27.64375 66.83125 27.753124Q66.83125 27.846874 66.7375 27.940624Q66.45625 28.2375 65.7375 28.4875Q65.01875 28.7375 64.25313 28.7375Q62.9875 28.7375 62.14375 27.909374Q61.3 27.08125 61.3 25.909374Q61.3 24.83125 62.096874 24.065624Q62.89375 23.3 64.06563 23.3Q65.26875 23.3 66.05 24.096874Q66.83125 24.878124 66.81563 26.128124ZM66.31563 25.628124Q66.175 24.815624 65.55 24.315624Q64.925 23.8 64.06563 23.8Q63.20625 23.8 62.58125 24.3Q61.95625 24.8 61.8 25.628124L66.31563 25.628124ZM77.14375 23.471874L79.81563 23.471874Q79.9875 23.471874 80.06563 23.55Q80.14375 23.6125 80.14375 23.721874Q80.14375 23.83125 80.06563 23.909374Q79.9875 23.971874 79.81563 23.971874L77.14375 23.971874L77.14375 27.253124Q77.14375 27.675 77.4875 27.971874Q77.83125 28.253124 78.4875 28.253124Q78.9875 28.253124 79.56563 28.1125Q80.14375 27.95625 80.47188 27.76875Q80.58125 27.690624 80.65938 27.690624Q80.75313 27.690624 80.81563 27.76875Q80.89375 27.83125 80.89375 27.940624Q80.89375 28.01875 80.81563 28.096874Q80.62813 28.284374 79.90938 28.51875Q79.19063 28.7375 78.51875 28.7375Q77.65938 28.7375 77.14375 28.346874Q76.64375 27.940624 76.64375 27.253124L76.64375 23.971874L75.7375 23.971874Q75.56563 23.971874 75.4875 23.909374Q75.40938 23.83125 75.40938 23.721874Q75.40938 23.6125 75.4875 23.55Q75.56563 23.471874 75.7375 23.471874L76.64375 23.471874L76.64375 22.01875Q76.64375 21.846874 76.70625 21.76875Q76.78438 21.690624 76.89375 21.690624Q77.00313 21.690624 77.06563 21.76875Q77.14375 21.846874 77.14375 22.01875L77.14375 23.471874ZM87.81563 26.128124L82.8 26.128124Q82.925 27.08125 83.59688 27.675Q84.26875 28.253124 85.25313 28.253124Q85.81563 28.253124 86.40938 28.08125Q87.01875 27.89375 87.39375 27.58125Q87.50313 27.503124 87.59688 27.503124Q87.69063 27.503124 87.75313 27.58125Q87.83125 27.64375 87.83125 27.753124Q87.83125 27.846874 87.7375 27.940624Q87.45625 28.2375 86.7375 28.4875Q86.01875 28.7375 85.25313 28.7375Q83.9875 28.7375 83.14375 27.909374Q82.3 27.08125 82.3 25.909374Q82.3 24.83125 83.09688 24.065624Q83.89375 23.3 85.06563 23.3Q86.26875 23.3 87.05 24.096874Q87.83125 24.878124 87.81563 26.128124ZM87.31563 25.628124Q87.175 24.815624 86.55 24.315624Q85.925 23.8 85.06563 23.8Q84.20625 23.8 83.58125 24.3Q82.95625 24.8 82.8 25.628124L87.31563 25.628124ZM93.78438 23.8Q93.78438 23.628124 93.84688 23.55Q93.925 23.471874 94.01875 23.471874Q94.12813 23.471874 94.19063 23.55Q94.26875 23.628124 94.26875 23.815624L94.26875 24.659374Q94.26875 24.83125 94.19063 24.909374Q94.12813 24.9875 94.01875 24.9875Q93.925 24.9875 93.84688 24.925Q93.78438 24.846874 93.78438 24.70625Q93.7375 24.346874 93.40938 24.128124Q92.94063 23.8 92.14375 23.8Q91.31563 23.8 90.8625 24.128124Q90.51875 24.378124 90.51875 24.690624Q90.51875 25.05 90.925 25.284374Q91.20625 25.440624 91.9875 25.534374Q93.01875 25.64375 93.40938 25.784374Q93.9875 25.9875 94.25313 26.3625Q94.53438 26.721874 94.53438 27.14375Q94.53438 27.76875 93.925 28.253124Q93.33125 28.7375 92.15938 28.7375Q91.00313 28.7375 90.25313 28.14375Q90.25313 28.346874 90.22188 28.409374Q90.20625 28.471874 90.14375 28.51875Q90.08125 28.55 90.00313 28.55Q89.90938 28.55 89.83125 28.471874Q89.76875 28.39375 89.76875 28.221874L89.76875 27.20625Q89.76875 27.034374 89.83125 26.95625Q89.89375 26.878124 90.00313 26.878124Q90.1125 26.878124 90.19063 26.95625Q90.26875 27.01875 90.26875 27.14375Q90.26875 27.425 90.39375 27.596874Q90.59688 27.878124 91.05 28.065624Q91.50313 28.253124 92.14375 28.253124Q93.1125 28.253124 93.58125 27.89375Q94.05 27.534374 94.05 27.14375Q94.05 26.675 93.56563 26.409374Q93.09688 26.128124 92.175 26.034374Q91.25313 25.940624 90.84688 25.8Q90.45625 25.64375 90.2375 25.346874Q90.01875 25.034374 90.01875 24.675Q90.01875 24.05 90.62813 23.675Q91.25313 23.3 92.1125 23.3Q93.14375 23.3 93.78438 23.8ZM98.14375 23.471874L100.81563 23.471874Q100.9875 23.471874 101.06563 23.55Q101.14375 23.6125 101.14375 23.721874Q101.14375 23.83125 101.06563 23.909374Q100.9875 23.971874 100.81563 23.971874L98.14375 23.971874L98.14375 27.253124Q98.14375 27.675 98.4875 27.971874Q98.83125 28.253124 99.4875 28.253124Q99.9875 28.253124 100.56563 28.1125Q101.14375 27.95625 101.47188 27.76875Q101.58125 27.690624 101.65938 27.690624Q101.75313 27.690624 101.81563 27.76875Q101.89375 27.83125 101.89375 27.940624Q101.89375 28.01875 101.81563 28.096874Q101.62813 28.284374 100.90938 28.51875Q100.19063 28.7375 99.51875 28.7375Q98.65938 28.7375 98.14375 28.346874Q97.64375 27.940624 97.64375 27.253124L97.64375 23.971874L96.7375 23.971874Q96.56563 23.971874 96.4875 23.909374Q96.40938 23.83125 96.40938 23.721874Q96.40938 23.6125 96.4875 23.55Q96.56563 23.471874 96.7375 23.471874L97.64375 23.471874L97.64375 22.01875Q97.64375 21.846874 97.70625 21.76875Q97.78438 21.690624 97.89375 21.690624Q98.00313 21.690624 98.06563 21.76875Q98.14375 21.846874 98.14375 22.01875L98.14375 23.471874Z" fill-rule="nonzero"/><path fill="#9e9e9e" d="M23.159374 41.55Q23.846874 41.846874 24.190624 42.378124Q24.55 42.909374 24.55 43.4875Q24.55 44.378124 23.83125 45.05Q23.128124 45.721874 22.05 45.721874Q21.409374 45.721874 20.721874 45.45625Q20.05 45.190624 19.784374 44.909374Q19.690624 44.815624 19.690624 44.70625Q19.690624 44.6125 19.753124 44.55Q19.83125 44.471874 19.925 44.471874Q20.01875 44.471874 20.128124 44.565624Q21.034374 45.2375 22.05 45.2375Q22.909374 45.2375 23.4875 44.70625Q24.065624 44.159374 24.065624 43.503124Q24.065624 43.065624 23.784374 42.64375Q23.503124 42.221874 22.95625 41.9875Q22.425 41.7375 21.878124 41.7375Q21.70625 41.7375 21.628124 41.675Q21.55 41.596874 21.55 41.4875Q21.55 41.378124 21.628124 41.315624Q21.70625 41.2375 21.846874 41.2375L22.26875 41.253124Q22.940624 41.253124 23.3625 40.846874Q23.8 40.440624 23.8 39.909374Q23.8 39.3625 23.346874 38.940624Q22.89375 38.51875 22.159374 38.51875Q21.659374 38.51875 21.221874 38.690624Q20.8 38.8625 20.55 39.175Q20.45625 39.284374 20.39375 39.315624Q20.346874 39.33125 20.284374 39.33125Q20.190624 39.33125 20.1125 39.26875Q20.05 39.20625 20.05 39.1125Q20.05 38.878124 20.55 38.51875Q21.26875 38.01875 22.159374 38.01875Q23.096874 38.01875 23.690624 38.58125Q24.3 39.14375 24.3 39.909374Q24.3 40.409374 24.003124 40.846874Q23.721874 41.284374 23.159374 41.55ZM29.05 44.14375L29.253124 44.14375Q29.58125 44.14375 29.815624 44.378124Q30.05 44.596874 30.05 44.925Q30.05 45.26875 29.815624 45.503124Q29.58125 45.721874 29.253124 45.721874L29.05 45.721874Q28.721874 45.721874 28.4875 45.503124Q28.253124 45.26875 28.253124 44.940624Q28.253124 44.596874 28.4875 44.378124Q28.721874 44.14375 29.05 44.14375ZM36.39375 38.096874L36.39375 45.05L38.08125 45.05Q38.253124 45.05 38.33125 45.128124Q38.409374 45.190624 38.409374 45.3Q38.409374 45.409374 38.33125 45.4875Q38.253124 45.55 38.08125 45.55L34.221874 45.55Q34.034374 45.55 33.95625 45.4875Q33.89375 45.409374 33.89375 45.3Q33.89375 45.190624 33.95625 45.128124Q34.034374 45.05 34.221874 45.05L35.909374 45.05L35.909374 38.76875L34.3 39.284374Q34.175 39.315624 34.128124 39.315624Q34.034374 39.315624 33.95625 39.253124Q33.89375 39.175 33.89375 39.065624Q33.89375 38.9875 33.95625 38.909374Q34.003124 38.8625 34.14375 38.8L36.39375 38.096874ZM43.89375 39.596874Q43.89375 40.221874 43.45625 40.675Q43.01875 41.1125 42.39375 41.1125Q41.784374 41.1125 41.33125 40.675Q40.89375 40.221874 40.89375 39.596874Q40.89375 38.95625 41.33125 38.51875Q41.784374 38.08125 42.39375 38.08125Q43.01875 38.08125 43.45625 38.51875Q43.89375 38.95625 43.89375 39.596874ZM43.55 39.596874Q43.55 39.1125 43.20625 38.76875Q42.878124 38.425 42.39375 38.425Q41.925 38.425 41.58125 38.76875Q41.253124 39.1125 41.253124 39.596874Q41.253124 40.08125 41.58125 40.425Q41.925 40.76875 42.39375 40.76875Q42.878124 40.76875 43.20625 40.425Q43.55 40.08125 43.55 39.596874ZM45.4875 41.3L40.940624 42.784374Q40.846874 42.8 40.815624 42.8Q40.753124 42.8 40.690624 42.753124Q40.64375 42.70625 40.64375 42.628124Q40.64375 42.565624 40.690624 42.51875Q40.721874 42.471874 40.815624 42.440624L45.378124 40.95625Q45.45625 40.940624 45.503124 40.940624Q45.565624 40.940624 45.6125 41.003124Q45.675 41.05 45.675 41.1125Q45.675 41.175 45.628124 41.2375Q45.596874 41.26875 45.4875 41.3ZM45.409374 44.175Q45.409374 44.8 44.971874 45.253124Q44.534374 45.690624 43.909374 45.690624Q43.3 45.690624 42.846874 45.253124Q42.409374 44.8 42.409374 44.175Q42.409374 43.534374 42.846874 43.096874Q43.284374 42.64375 43.909374 42.64375Q44.534374 42.64375 44.971874 43.096874Q45.409374 43.534374 45.409374 44.175ZM45.065624 44.175Q45.065624 43.675 44.721874 43.346874Q44.378124 43.003124 43.909374 43.003124Q43.440624 43.003124 43.096874 43.346874Q42.76875 43.690624 42.76875 44.175Q42.76875 44.659374 43.096874 45.003124Q43.440624 45.33125 43.909374 45.33125Q44.378124 45.33125 44.721874 45.003124Q45.065624 44.659374 45.065624 44.175Z" fill-rule="nonzero"/><path stroke="#757575" stroke-width="1.0" stroke-linecap="butt" d="M18.55 34.05L127.05 34.05L280.5909 28.089579" fill-rule="nonzero"/><path fill="#9e9e9e" d="M282.5909 28.089579C282.5909 26.98501 281.6955 26.089579 280.5909 26.089579C279.48636 26.089579 278.5909 26.98501 278.5909 28.089579C278.5909 29.194149 279.48636 30.089579 280.5909 30.089579C281.6955 30.089579 282.5909 29.194149 282.5909 28.089579" fill-rule="nonzero"/><path fill="#1a1a1a" d="M21.14375 314.0998L23.815624 314.0998Q23.9875 314.0998 24.065624 314.17792Q24.14375 314.24042 24.14375 314.3498Q24.14375 314.45917 24.065624 314.5373Q23.9875 314.5998 23.815624 314.5998L21.14375 314.5998L21.14375 317.88104Q21.14375 318.30292 21.4875 318.5998Q21.83125 318.88104 22.4875 318.88104Q22.9875 318.88104 23.565624 318.74042Q24.14375 318.58417 24.471874 318.39667Q24.58125 318.31854 24.659374 318.31854Q24.753124 318.31854 24.815624 318.39667Q24.89375 318.45917 24.89375 318.56854Q24.89375 318.64667 24.815624 318.7248Q24.628124 318.9123 23.909374 319.14667Q23.190624 319.36542 22.51875 319.36542Q21.659374 319.36542 21.14375 318.9748Q20.64375 318.56854 20.64375 317.88104L20.64375 314.5998L19.7375 314.5998Q19.565624 314.5998 19.4875 314.5373Q19.409374 314.45917 19.409374 314.3498Q19.409374 314.24042 19.4875 314.17792Q19.565624 314.0998 19.7375 314.0998L20.64375 314.0998L20.64375 312.64667Q20.64375 312.4748 20.70625 312.39667Q20.784374 312.31854 20.89375 312.31854Q21.003124 312.31854 21.065624 312.39667Q21.14375 312.4748 21.14375 312.64667L21.14375 314.0998ZM28.565624 314.0998L28.565624 315.3498Q29.51875 314.4748 29.9875 314.2248Q30.471874 313.9748 30.878124 313.9748Q31.315624 313.9748 31.690624 314.27167Q32.08125 314.56854 32.08125 314.7248Q32.08125 314.83417 32.003124 314.9123Q31.925 314.9748 31.815624 314.9748Q31.76875 314.9748 31.721874 314.95917Q31.675 314.94354 31.565624 314.83417Q31.3625 314.63104 31.20625 314.55292Q31.065624 314.4748 30.909374 314.4748Q30.596874 314.4748 30.128124 314.74042Q29.675 314.99042 28.565624 315.99042L28.565624 318.67792L30.7375 318.67792Q30.925 318.67792 31.003124 318.75604Q31.08125 318.81854 31.08125 318.92792Q31.08125 319.0373 31.003124 319.11542Q30.925 319.17792 30.7375 319.17792L26.878124 319.17792Q26.70625 319.17792 26.628124 319.11542Q26.55 319.0373 26.55 318.94354Q26.55 318.83417 26.628124 318.77167Q26.70625 318.70917 26.878124 318.70917L28.065624 318.70917L28.065624 314.5998L27.159374 314.5998Q26.9875 314.5998 26.909374 314.5373Q26.83125 314.45917 26.83125 314.3498Q26.83125 314.24042 26.909374 314.17792Q26.9875 314.0998 27.159374 314.0998L28.565624 314.0998ZM37.565624 319.17792L37.565624 318.4748Q36.4875 319.36542 35.26875 319.36542Q34.39375 319.36542 33.89375 318.92792Q33.39375 318.4748 33.39375 317.81854Q33.39375 317.11542 34.05 316.58417Q34.70625 316.0373 35.971874 316.0373Q36.3 316.0373 36.690624 316.08417Q37.096874 316.13104 37.565624 316.2248L37.565624 315.42792Q37.565624 315.02167 37.190624 314.7248Q36.815624 314.42792 36.065624 314.42792Q35.4875 314.42792 34.45625 314.75604Q34.26875 314.81854 34.221874 314.81854Q34.128124 314.81854 34.05 314.75604Q33.9875 314.67792 33.9875 314.56854Q33.9875 314.4748 34.05 314.4123Q34.128124 314.31854 34.70625 314.17792Q35.628124 313.92792 36.096874 313.92792Q37.01875 313.92792 37.534374 314.39667Q38.065624 314.8498 38.065624 315.42792L38.065624 318.67792L38.721874 318.67792Q38.909374 318.67792 38.971874 318.75604Q39.05 318.81854 39.05 318.92792Q39.05 319.0373 38.971874 319.11542Q38.909374 319.17792 38.721874 319.17792L37.565624 319.17792ZM37.565624 316.7248Q37.221874 316.63104 36.83125 316.58417Q36.440624 316.5373 36.01875 316.5373Q34.940624 316.5373 34.346874 316.99042Q33.89375 317.3498 33.89375 317.81854Q33.89375 318.27167 34.2375 318.58417Q34.58125 318.88104 35.253124 318.88104Q35.89375 318.88104 36.440624 318.63104Q36.9875 318.36542 37.565624 317.81854L37.565624 316.7248ZM43.39375 311.58417L43.39375 312.8498L42.675 312.8498L42.675 311.58417L43.39375 311.58417ZM43.409374 314.0998L43.409374 318.67792L45.346874 318.67792Q45.534374 318.67792 45.596874 318.75604Q45.675 318.81854 45.675 318.92792Q45.675 319.0373 45.596874 319.11542Q45.534374 319.17792 45.346874 319.17792L40.9875 319.17792Q40.815624 319.17792 40.7375 319.11542Q40.659374 319.0373 40.659374 318.92792Q40.659374 318.81854 40.7375 318.75604Q40.815624 318.67792 40.9875 318.67792L42.925 318.67792L42.925 314.5998L41.4875 314.5998Q41.315624 314.5998 41.221874 314.5373Q41.14375 314.45917 41.14375 314.3498Q41.14375 314.24042 41.221874 314.17792Q41.3 314.0998 41.4875 314.0998L43.409374 314.0998ZM48.565624 314.0998L48.565624 314.8498Q49.08125 314.31854 49.4875 314.13104Q49.909374 313.92792 50.425 313.92792Q50.9875 313.92792 51.45625 314.1623Q51.784374 314.3498 52.05 314.75604Q52.315624 315.1623 52.315624 315.58417L52.315624 318.67792L52.7375 318.67792Q52.909374 318.67792 52.9875 318.75604Q53.065624 318.81854 53.065624 318.92792Q53.065624 319.0373 52.9875 319.11542Q52.909374 319.17792 52.7375 319.17792L51.409374 319.17792Q51.2375 319.17792 51.159374 319.11542Q51.08125 319.0373 51.08125 318.92792Q51.08125 318.81854 51.159374 318.75604Q51.2375 318.67792 51.409374 318.67792L51.83125 318.67792L51.83125 315.6623Q51.83125 315.14667 51.440624 314.7873Q51.065624 314.42792 50.425 314.42792Q49.940624 314.42792 49.58125 314.63104Q49.221874 314.81854 48.565624 315.5998L48.565624 318.67792L49.1125 318.67792Q49.3 318.67792 49.3625 318.75604Q49.440624 318.81854 49.440624 318.92792Q49.440624 319.0373 49.3625 319.11542Q49.3 319.17792 49.1125 319.17792L47.51875 319.17792Q47.33125 319.17792 47.253124 319.11542Q47.190624 319.0373 47.190624 318.92792Q47.190624 318.81854 47.253124 318.75604Q47.33125 318.67792 47.51875 318.67792L48.065624 318.67792L48.065624 314.5998L47.659374 314.5998Q47.471874 314.5998 47.39375 314.5373Q47.33125 314.45917 47.33125 314.3498Q47.33125 314.24042 47.39375 314.17792Q47.471874 314.0998 47.659374 314.0998L48.565624 314.0998Z" fill-rule="nonzero"/><path fill="#9e9e9e" d="M23.8 329.5373L23.8 329.31854L20.284374 329.31854L20.284374 329.75604Q20.284374 329.92792 20.20625 330.00604Q20.14375 330.08417 20.034374 330.08417Q19.925 330.08417 19.846874 330.00604Q19.784374 329.92792 19.784374 329.75604L19.784374 328.81854L24.3 328.81854L24.3 329.61542L22.33125 335.94354Q22.284374 336.08417 22.20625 336.14667Q22.14375 336.19354 22.065624 336.19354Q21.95625 336.19354 21.878124 336.13104Q21.815624 336.05292 21.815624 335.95917Q21.815624 335.89667 21.8625 335.7873L23.8 329.5373ZM27.690624 333.06854Q28.14375 332.39667 28.628124 332.06854Q29.1125 331.74042 29.70625 331.74042Q30.4875 331.74042 31.096874 332.39667Q31.70625 333.05292 31.70625 334.02167Q31.70625 334.89667 31.14375 335.63104Q30.596874 336.3498 29.6125 336.3498Q28.971874 336.3498 28.409374 335.95917Q27.8625 335.56854 27.55 334.75604Q27.159374 333.74042 27.159374 332.50604Q27.159374 331.58417 27.51875 330.7873Q27.8 330.17792 28.26875 329.70917Q28.7375 329.24042 29.3625 328.94354Q29.9875 328.64667 30.721874 328.64667Q31.20625 328.64667 31.534374 328.8498Q31.675 328.92792 31.675 329.08417Q31.675 329.19354 31.6125 329.25604Q31.55 329.31854 31.45625 329.31854Q31.378124 329.31854 31.26875 329.25604Q31.034374 329.14667 30.675 329.14667Q29.534374 329.14667 28.58125 330.13104Q27.64375 331.11542 27.64375 332.45917Q27.64375 332.6623 27.690624 333.06854ZM27.8 333.88104Q28.01875 334.94354 28.4875 335.4123Q28.971874 335.86542 29.628124 335.86542Q30.284374 335.86542 30.7375 335.3498Q31.20625 334.83417 31.20625 334.02167Q31.20625 333.24042 30.7375 332.74042Q30.26875 332.24042 29.675 332.24042Q29.1125 332.24042 28.58125 332.7248Q28.2375 333.05292 27.8 333.88104ZM36.05 334.77167L36.253124 334.77167Q36.58125 334.77167 36.815624 335.00604Q37.05 335.2248 37.05 335.55292Q37.05 335.89667 36.815624 336.13104Q36.58125 336.3498 36.253124 336.3498L36.05 336.3498Q35.721874 336.3498 35.4875 336.13104Q35.253124 335.89667 35.253124 335.56854Q35.253124 335.2248 35.4875 335.00604Q35.721874 334.77167 36.05 334.77167ZM44.159374 332.36542Q44.784374 332.6623 45.096874 333.1623Q45.409374 333.64667 45.409374 334.20917Q45.409374 335.06854 44.753124 335.70917Q44.096874 336.3498 43.159374 336.3498Q42.221874 336.3498 41.565624 335.70917Q40.909374 335.06854 40.909374 334.20917Q40.909374 333.64667 41.221874 333.1623Q41.534374 332.6623 42.159374 332.36542Q41.6125 332.05292 41.3625 331.7248Q41.034374 331.24042 41.034374 330.6623Q41.034374 329.86542 41.64375 329.25604Q42.26875 328.64667 43.159374 328.64667Q44.034374 328.64667 44.659374 329.25604Q45.284374 329.86542 45.284374 330.6623Q45.284374 331.24042 44.940624 331.70917Q44.70625 332.05292 44.159374 332.36542ZM44.784374 330.69354Q44.784374 330.05292 44.3 329.5998Q43.83125 329.14667 43.14375 329.14667Q42.471874 329.14667 41.9875 329.5998Q41.51875 330.05292 41.51875 330.67792Q41.51875 331.25604 41.9875 331.69354Q42.45625 332.11542 43.14375 332.11542Q43.846874 332.11542 44.315624 331.69354Q44.784374 331.25604 44.784374 330.69354ZM44.909374 334.20917Q44.909374 333.56854 44.409374 333.08417Q43.909374 332.5998 43.159374 332.5998Q42.409374 332.5998 41.89375 333.08417Q41.39375 333.56854 41.39375 334.20917Q41.39375 334.88104 41.89375 335.38104Q42.409374 335.86542 43.159374 335.86542Q43.89375 335.86542 44.39375 335.38104Q44.909374 334.88104 44.909374 334.20917ZM50.89375 330.2248Q50.89375 330.8498 50.45625 331.30292Q50.01875 331.74042 49.39375 331.74042Q48.784374 331.74042 48.33125 331.30292Q47.89375 330.8498 47.89375 330.2248Q47.89375 329.58417 48.33125 329.14667Q48.784374 328.70917 49.39375 328.70917Q50.01875 328.70917 50.45625 329.14667Q50.89375 329.58417 50.89375 330.2248ZM50.55 330.2248Q50.55 329.74042 50.20625 329.39667Q49.878124 329.05292 49.39375 329.05292Q48.925 329.05292 48.58125 329.39667Q48.253124 329.74042 48.253124 330.2248Q48.253124 330.70917 48.58125 331.05292Q48.925 331.39667 49.39375 331.39667Q49.878124 331.39667 50.20625 331.05292Q50.55 330.70917 50.55 330.2248ZM52.4875 331.92792L47.940624 333.4123Q47.846874 333.42792 47.815624 333.42792Q47.753124 333.42792 47.690624 333.38104Q47.64375 333.33417 47.64375 333.25604Q47.64375 333.19354 47.690624 333.14667Q47.721874 333.0998 47.815624 333.06854L52.378124 331.58417Q52.45625 331.56854 52.503124 331.56854Q52.565624 331.56854 52.6125 331.63104Q52.675 331.67792 52.675 331.74042Q52.675 331.80292 52.628124 331.86542Q52.596874 331.89667 52.4875 331.92792ZM52.409374 334.80292Q52.409374 335.42792 51.971874 335.88104Q51.534374 336.31854 50.909374 336.31854Q50.3 336.31854 49.846874 335.88104Q49.409374 335.42792 49.409374 334.80292Q49.409374 334.1623 49.846874 333.7248Q50.284374 333.27167 50.909374 333.27167Q51.534374 333.27167 51.971874 333.7248Q52.409374 334.1623 52.409374 334.80292ZM52.065624 334.80292Q52.065624 334.30292 51.721874 333.9748Q51.378124 333.63104 50.909374 333.63104Q50.440624 333.63104 50.096874 333.9748Q49.76875 334.31854 49.76875 334.80292Q49.76875 335.2873 50.096874 335.63104Q50.440624 335.95917 50.909374 335.95917Q51.378124 335.95917 51.721874 335.63104Q52.065624 335.2873 52.065624 334.80292Z" fill-rule="nonzero"/><path stroke="#757575" stroke-width="1.0" stroke-linecap="butt" d="M18.55 324.67792L127.05 324.67792L223.94568 324.67792" fill-rule="nonzero"/><path fill="#9e9e9e" d="M225.94568 324.67792C225.94568 323.57336 225.05025 322.67792 223.94568 322.67792C222.84111 322.67792 221.94568 323.57336 221.94568 324.67792C221.94568 325.7825 222.84111 326.67792 223.94568 326.67792C225.05025 326.67792 225.94568 325.7825 225.94568 324.67792" fill-rule="nonzero"/><path fill="#1a1a1a" d="M515.29376 21.190624L515.29376 28.05L517.23126 28.05Q517.41876 28.05 517.4969 28.128124Q517.575 28.190624 517.575 28.3Q517.575 28.409374 517.4969 28.4875Q517.41876 28.55 517.23126 28.55L512.8719 28.55Q512.7 28.55 512.6219 28.4875Q512.54376 28.409374 512.54376 28.3Q512.54376 28.190624 512.6219 28.128124Q512.7 28.05 512.8719 28.05L514.8094 28.05L514.8094 21.690624L513.3875 21.690624Q513.21564 21.690624 513.1375 21.628124Q513.0594 21.55 513.0594 21.440624Q513.0594 21.33125 513.1375 21.26875Q513.21564 21.190624 513.3875 21.190624L515.29376 21.190624ZM524.8094 26.01875Q524.8094 27.14375 523.9969 27.940624Q523.1844 28.7375 522.0594 28.7375Q520.90314 28.7375 520.09064 27.940624Q519.29376 27.14375 519.29376 26.01875Q519.29376 24.89375 520.09064 24.096874Q520.90314 23.3 522.0594 23.3Q523.1844 23.3 523.9969 24.096874Q524.8094 24.89375 524.8094 26.01875ZM524.3094 26.01875Q524.3094 25.096874 523.6375 24.45625Q522.98126 23.8 522.04376 23.8Q521.10626 23.8 520.45 24.45625Q519.79376 25.096874 519.79376 26.01875Q519.79376 26.940624 520.45 27.596874Q521.10626 28.253124 522.04376 28.253124Q522.98126 28.253124 523.6375 27.596874Q524.3094 26.940624 524.3094 26.01875ZM530.46564 28.55L530.46564 27.846874Q529.3875 28.7375 528.16876 28.7375Q527.29376 28.7375 526.79376 28.3Q526.29376 27.846874 526.29376 27.190624Q526.29376 26.4875 526.95 25.95625Q527.60626 25.409374 528.8719 25.409374Q529.2 25.409374 529.59064 25.45625Q529.9969 25.503124 530.46564 25.596874L530.46564 24.8Q530.46564 24.39375 530.09064 24.096874Q529.71564 23.8 528.96564 23.8Q528.3875 23.8 527.35626 24.128124Q527.16876 24.190624 527.1219 24.190624Q527.02814 24.190624 526.95 24.128124Q526.8875 24.05 526.8875 23.940624Q526.8875 23.846874 526.95 23.784374Q527.02814 23.690624 527.60626 23.55Q528.52814 23.3 528.9969 23.3Q529.91876 23.3 530.4344 23.76875Q530.96564 24.221874 530.96564 24.8L530.96564 28.05L531.6219 28.05Q531.8094 28.05 531.8719 28.128124Q531.95 28.190624 531.95 28.3Q531.95 28.409374 531.8719 28.4875Q531.8094 28.55 531.6219 28.55L530.46564 28.55ZM530.46564 26.096874Q530.1219 26.003124 529.73126 25.95625Q529.34064 25.909374 528.91876 25.909374Q527.84064 25.909374 527.2469 26.3625Q526.79376 26.721874 526.79376 27.190624Q526.79376 27.64375 527.1375 27.95625Q527.48126 28.253124 528.15314 28.253124Q528.79376 28.253124 529.34064 28.003124Q529.8875 27.7375 530.46564 27.190624L530.46564 26.096874ZM538.46564 21.190624L538.46564 28.05L539.1219 28.05Q539.29376 28.05 539.3719 28.128124Q539.45 28.190624 539.45 28.3Q539.45 28.409374 539.3719 28.4875Q539.29376 28.55 539.1219 28.55L537.96564 28.55L537.96564 27.565624Q537.10626 28.7375 535.79376 28.7375Q535.1219 28.7375 534.5125 28.39375Q533.90314 28.034374 533.54376 27.378124Q533.1844 26.721874 533.1844 26.01875Q533.1844 25.315624 533.54376 24.675Q533.90314 24.01875 534.5125 23.659374Q535.1219 23.3 535.79376 23.3Q537.09064 23.3 537.96564 24.471874L537.96564 21.690624L537.3094 21.690624Q537.1219 21.690624 537.04376 21.628124Q536.98126 21.55 536.98126 21.440624Q536.98126 21.33125 537.04376 21.26875Q537.1219 21.190624 537.3094 21.190624L538.46564 21.190624ZM537.96564 26.01875Q537.96564 25.08125 537.325 24.440624Q536.7 23.8 535.825 23.8Q534.95 23.8 534.3094 24.440624Q533.6844 25.08125 533.6844 26.01875Q533.6844 26.95625 534.3094 27.6125Q534.95 28.253124 535.825 28.253124Q536.7 28.253124 537.325 27.6125Q537.96564 26.95625 537.96564 26.01875ZM549.04376 23.471874L551.71564 23.471874Q551.8875 23.471874 551.96564 23.55Q552.04376 23.6125 552.04376 23.721874Q552.04376 23.83125 551.96564 23.909374Q551.8875 23.971874 551.71564 23.971874L549.04376 23.971874L549.04376 27.253124Q549.04376 27.675 549.3875 27.971874Q549.73126 28.253124 550.3875 28.253124Q550.8875 28.253124 551.46564 28.1125Q552.04376 27.95625 552.3719 27.76875Q552.48126 27.690624 552.5594 27.690624Q552.65314 27.690624 552.71564 27.76875Q552.79376 27.83125 552.79376 27.940624Q552.79376 28.01875 552.71564 28.096874Q552.52814 28.284374 551.8094 28.51875Q551.09064 28.7375 550.41876 28.7375Q549.5594 28.7375 549.04376 28.346874Q548.54376 27.940624 548.54376 27.253124L548.54376 23.971874L547.6375 23.971874Q547.46564 23.971874 547.3875 23.909374Q547.3094 23.83125 547.3094 23.721874Q547.3094 23.6125 547.3875 23.55Q547.46564 23.471874 547.6375 23.471874L548.54376 23.471874L548.54376 22.01875Q548.54376 21.846874 548.60626 21.76875Q548.6844 21.690624 548.79376 21.690624Q548.90314 21.690624 548.96564 21.76875Q549.04376 21.846874 549.04376 22.01875L549.04376 23.471874ZM556.46564 23.471874L556.46564 24.721874Q557.41876 23.846874 557.8875 23.596874Q558.3719 23.346874 558.77814 23.346874Q559.21564 23.346874 559.59064 23.64375Q559.98126 23.940624 559.98126 24.096874Q559.98126 24.20625 559.90314 24.284374Q559.825 24.346874 559.71564 24.346874Q559.66876 24.346874 559.6219 24.33125Q559.575 24.315624 559.46564 24.20625Q559.2625 24.003124 559.10626 23.925Q558.96564 23.846874 558.8094 23.846874Q558.4969 23.846874 558.02814 24.1125Q557.575 24.3625 556.46564 25.3625L556.46564 28.05L558.6375 28.05Q558.825 28.05 558.90314 28.128124Q558.98126 28.190624 558.98126 28.3Q558.98126 28.409374 558.90314 28.4875Q558.825 28.55 558.6375 28.55L554.77814 28.55Q554.60626 28.55 554.52814 28.4875Q554.45 28.409374 554.45 28.315624Q554.45 28.20625 554.52814 28.14375Q554.60626 28.08125 554.77814 28.08125L555.96564 28.08125L555.96564 23.971874L555.0594 23.971874Q554.8875 23.971874 554.8094 23.909374Q554.73126 23.83125 554.73126 23.721874Q554.73126 23.6125 554.8094 23.55Q554.8875 23.471874 555.0594 23.471874L556.46564 23.471874ZM565.46564 28.55L565.46564 27.846874Q564.3875 28.7375 563.16876 28.7375Q562.29376 28.7375 561.79376 28.3Q561.29376 27.846874 561.29376 27.190624Q561.29376 26.4875 561.95 25.95625Q562.60626 25.409374 563.8719 25.409374Q564.2 25.409374 564.59064 25.45625Q564.9969 25.503124 565.46564 25.596874L565.46564 24.8Q565.46564 24.39375 565.09064 24.096874Q564.71564 23.8 563.96564 23.8Q563.3875 23.8 562.35626 24.128124Q562.16876 24.190624 562.1219 24.190624Q562.02814 24.190624 561.95 24.128124Q561.8875 24.05 561.8875 23.940624Q561.8875 23.846874 561.95 23.784374Q562.02814 23.690624 562.60626 23.55Q563.52814 23.3 563.9969 23.3Q564.91876 23.3 565.4344 23.76875Q565.96564 24.221874 565.96564 24.8L565.96564 28.05L566.6219 28.05Q566.8094 28.05 566.8719 28.128124Q566.95 28.190624 566.95 28.3Q566.95 28.409374 566.8719 28.4875Q566.8094 28.55 566.6219 28.55L565.46564 28.55ZM565.46564 26.096874Q565.1219 26.003124 564.73126 25.95625Q564.34064 25.909374 563.91876 25.909374Q562.84064 25.909374 562.2469 26.3625Q561.79376 26.721874 561.79376 27.190624Q561.79376 27.64375 562.1375 27.95625Q562.48126 28.253124 563.15314 28.253124Q563.79376 28.253124 564.34064 28.003124Q564.8875 27.7375 565.46564 27.190624L565.46564 26.096874ZM571.29376 20.95625L571.29376 22.221874L570.575 22.221874L570.575 20.95625L571.29376 20.95625ZM571.3094 23.471874L571.3094 28.05L573.2469 28.05Q573.4344 28.05 573.4969 28.128124Q573.575 28.190624 573.575 28.3Q573.575 28.409374 573.4969 28.4875Q573.4344 28.55 573.2469 28.55L568.8875 28.55Q568.71564 28.55 568.6375 28.4875Q568.5594 28.409374 568.5594 28.3Q568.5594 28.190624 568.6375 28.128124Q568.71564 28.05 568.8875 28.05L570.825 28.05L570.825 23.971874L569.3875 23.971874Q569.21564 23.971874 569.1219 23.909374Q569.04376 23.83125 569.04376 23.721874Q569.04376 23.6125 569.1219 23.55Q569.2 23.471874 569.3875 23.471874L571.3094 23.471874ZM576.46564 23.471874L576.46564 24.221874Q576.98126 23.690624 577.3875 23.503124Q577.8094 23.3 578.325 23.3Q578.8875 23.3 579.35626 23.534374Q579.6844 23.721874 579.95 24.128124Q580.21564 24.534374 580.21564 24.95625L580.21564 28.05L580.6375 28.05Q580.8094 28.05 580.8875 28.128124Q580.96564 28.190624 580.96564 28.3Q580.96564 28.409374 580.8875 28.4875Q580.8094 28.55 580.6375 28.55L579.3094 28.55Q579.1375 28.55 579.0594 28.4875Q578.98126 28.409374 578.98126 28.3Q578.98126 28.190624 579.0594 28.128124Q579.1375 28.05 579.3094 28.05L579.73126 28.05L579.73126 25.034374Q579.73126 24.51875 579.34064 24.159374Q578.96564 23.8 578.325 23.8Q577.84064 23.8 577.48126 24.003124Q577.1219 24.190624 576.46564 24.971874L576.46564 28.05L577.0125 28.05Q577.2 28.05 577.2625 28.128124Q577.34064 28.190624 577.34064 28.3Q577.34064 28.409374 577.2625 28.4875Q577.2 28.55 577.0125 28.55L575.41876 28.55Q575.23126 28.55 575.15314 28.4875Q575.09064 28.409374 575.09064 28.3Q575.09064 28.190624 575.15314 28.128124Q575.23126 28.05 575.41876 28.05L575.96564 28.05L575.96564 23.971874L575.5594 23.971874Q575.3719 23.971874 575.29376 23.909374Q575.23126 23.83125 575.23126 23.721874Q575.23126 23.6125 575.29376 23.55Q575.3719 23.471874 575.5594 23.471874L576.46564 23.471874Z" fill-rule="nonzero"/><path fill="#9e9e9e" d="M559.3094 41.26875L559.3094 42.4875Q559.3094 44.065624 558.5594 45.003124Q557.96564 45.721874 557.0594 45.721874Q556.6219 45.721874 556.23126 45.55Q555.85626 45.378124 555.59064 45.065624Q555.41876 44.878124 555.21564 44.45625Q555.0125 44.01875 554.9344 43.659374Q554.79376 43.159374 554.79376 42.4875L554.79376 41.26875Q554.79376 39.675 555.54376 38.753124Q556.1375 38.01875 557.04376 38.01875Q557.48126 38.01875 557.85626 38.190624Q558.2469 38.3625 558.5125 38.675Q558.6844 38.878124 558.8875 39.315624Q559.09064 39.7375 559.1844 40.08125Q559.3094 40.58125 559.3094 41.26875ZM558.825 41.33125Q558.825 40.628124 558.6219 40.034374Q558.41876 39.425 558.1844 39.08125Q558.02814 38.8625 557.79376 38.721874Q557.46564 38.51875 557.04376 38.51875Q556.21564 38.51875 555.7469 39.3625Q555.27814 40.20625 555.27814 41.33125L555.27814 42.409374Q555.27814 43.1125 555.48126 43.721874Q555.6844 44.315624 555.9344 44.675Q556.075 44.878124 556.3094 45.01875Q556.6375 45.2375 557.0594 45.2375Q557.8875 45.2375 558.35626 44.39375Q558.825 43.534374 558.825 42.409374L558.825 41.33125ZM563.95 44.14375L564.15314 44.14375Q564.48126 44.14375 564.71564 44.378124Q564.95 44.596874 564.95 44.925Q564.95 45.26875 564.71564 45.503124Q564.48126 45.721874 564.15314 45.721874L563.95 45.721874Q563.6219 45.721874 563.3875 45.503124Q563.15314 45.26875 563.15314 44.940624Q563.15314 44.596874 563.3875 44.378124Q563.6219 44.14375 563.95 44.14375ZM572.7 38.909374L572.7 38.690624L569.1844 38.690624L569.1844 39.128124Q569.1844 39.3 569.10626 39.378124Q569.04376 39.45625 568.9344 39.45625Q568.825 39.45625 568.7469 39.378124Q568.6844 39.3 568.6844 39.128124L568.6844 38.190624L573.2 38.190624L573.2 38.9875L571.23126 45.315624Q571.1844 45.45625 571.10626 45.51875Q571.04376 45.565624 570.96564 45.565624Q570.85626 45.565624 570.77814 45.503124Q570.71564 45.425 570.71564 45.33125Q570.71564 45.26875 570.7625 45.159374L572.7 38.909374ZM578.79376 39.596874Q578.79376 40.221874 578.35626 40.675Q577.91876 41.1125 577.29376 41.1125Q576.6844 41.1125 576.23126 40.675Q575.79376 40.221874 575.79376 39.596874Q575.79376 38.95625 576.23126 38.51875Q576.6844 38.08125 577.29376 38.08125Q577.91876 38.08125 578.35626 38.51875Q578.79376 38.95625 578.79376 39.596874ZM578.45 39.596874Q578.45 39.1125 578.10626 38.76875Q577.77814 38.425 577.29376 38.425Q576.825 38.425 576.48126 38.76875Q576.15314 39.1125 576.15314 39.596874Q576.15314 40.08125 576.48126 40.425Q576.825 40.76875 577.29376 40.76875Q577.77814 40.76875 578.10626 40.425Q578.45 40.08125 578.45 39.596874ZM580.3875 41.3L575.84064 42.784374Q575.7469 42.8 575.71564 42.8Q575.65314 42.8 575.59064 42.753124Q575.54376 42.70625 575.54376 42.628124Q575.54376 42.565624 575.59064 42.51875Q575.6219 42.471874 575.71564 42.440624L580.27814 40.95625Q580.35626 40.940624 580.40314 40.940624Q580.46564 40.940624 580.5125 41.003124Q580.575 41.05 580.575 41.1125Q580.575 41.175 580.52814 41.2375Q580.4969 41.26875 580.3875 41.3ZM580.3094 44.175Q580.3094 44.8 579.8719 45.253124Q579.4344 45.690624 578.8094 45.690624Q578.2 45.690624 577.7469 45.253124Q577.3094 44.8 577.3094 44.175Q577.3094 43.534374 577.7469 43.096874Q578.1844 42.64375 578.8094 42.64375Q579.4344 42.64375 579.8719 43.096874Q580.3094 43.534374 580.3094 44.175ZM579.96564 44.175Q579.96564 43.675 579.6219 43.346874Q579.27814 43.003124 578.8094 43.003124Q578.34064 43.003124 577.9969 43.346874Q577.66876 43.690624 577.66876 44.175Q577.66876 44.659374 577.9969 45.003124Q578.34064 45.33125 578.8094 45.33125Q579.27814 45.33125 579.6219 45.003124Q579.96564 44.659374 579.96564 44.175Z" fill-rule="nonzero"/><path stroke="#757575" stroke-width="1.0" stroke-linecap="butt" d="M581.45 34.05L472.95 34.05L303.30054 26.931847" fill-rule="nonzero"/><path fill="#9e9e9e" d="M305.30054 26.931847C305.30054 25.827276 304.40512 24.931847 303.30054 24.931847C302.19598 24.931847 301.30054 25.827276 301.30054 26.931847C301.30054 28.036415 302.19598 28.931847 303.30054 28.931847C304.40512 28.931847 305.30054 28.036415 305.30054 26.931847" fill-rule="nonzero"/><path fill="#1a1a1a" d="M492.2 54.471874L492.2 55.378124Q492.6375 54.83125 493.1375 54.565624Q493.6375 54.3 494.325 54.3Q495.0594 54.3 495.66876 54.64375Q496.29376 54.971874 496.6219 55.58125Q496.96564 56.190624 496.96564 56.8625Q496.96564 57.925 496.2 58.675Q495.45 59.425 494.34064 59.425Q493.0125 59.425 492.2 58.346874L492.2 61.315624L493.3875 61.315624Q493.575 61.315624 493.6375 61.378124Q493.71564 61.45625 493.71564 61.565624Q493.71564 61.675 493.6375 61.7375Q493.575 61.815624 493.3875 61.815624L491.04376 61.815624Q490.8719 61.815624 490.79376 61.7375Q490.71564 61.675 490.71564 61.565624Q490.71564 61.45625 490.79376 61.378124Q490.8719 61.315624 491.04376 61.315624L491.7 61.315624L491.7 54.971874L491.04376 54.971874Q490.8719 54.971874 490.79376 54.909374Q490.71564 54.83125 490.71564 54.721874Q490.71564 54.6125 490.79376 54.55Q490.8719 54.471874 491.04376 54.471874L492.2 54.471874ZM496.46564 56.8625Q496.46564 56.003124 495.84064 55.409374Q495.23126 54.8 494.34064 54.8Q493.4344 54.8 492.8094 55.409374Q492.2 56.01875 492.2 56.8625Q492.2 57.70625 492.8094 58.315624Q493.4344 58.925 494.34064 58.925Q495.21564 58.925 495.84064 58.33125Q496.46564 57.721874 496.46564 56.8625ZM500.46564 54.471874L500.46564 55.721874Q501.41876 54.846874 501.8875 54.596874Q502.3719 54.346874 502.77814 54.346874Q503.21564 54.346874 503.59064 54.64375Q503.98126 54.940624 503.98126 55.096874Q503.98126 55.20625 503.90314 55.284374Q503.825 55.346874 503.71564 55.346874Q503.66876 55.346874 503.6219 55.33125Q503.575 55.315624 503.46564 55.20625Q503.2625 55.003124 503.10626 54.925Q502.96564 54.846874 502.8094 54.846874Q502.4969 54.846874 502.02814 55.1125Q501.575 55.3625 500.46564 56.3625L500.46564 59.05L502.6375 59.05Q502.825 59.05 502.90314 59.128124Q502.98126 59.190624 502.98126 59.3Q502.98126 59.409374 502.90314 59.4875Q502.825 59.55 502.6375 59.55L498.77814 59.55Q498.60626 59.55 498.52814 59.4875Q498.45 59.409374 498.45 59.315624Q498.45 59.20625 498.52814 59.14375Q498.60626 59.08125 498.77814 59.08125L499.96564 59.08125L499.96564 54.971874L499.0594 54.971874Q498.8875 54.971874 498.8094 54.909374Q498.73126 54.83125 498.73126 54.721874Q498.73126 54.6125 498.8094 54.55Q498.8875 54.471874 499.0594 54.471874L500.46564 54.471874ZM510.71564 57.128124L505.7 57.128124Q505.825 58.08125 506.4969 58.675Q507.16876 59.253124 508.15314 59.253124Q508.71564 59.253124 509.3094 59.08125Q509.91876 58.89375 510.29376 58.58125Q510.40314 58.503124 510.4969 58.503124Q510.59064 58.503124 510.65314 58.58125Q510.73126 58.64375 510.73126 58.753124Q510.73126 58.846874 510.6375 58.940624Q510.35626 59.2375 509.6375 59.4875Q508.91876 59.7375 508.15314 59.7375Q506.8875 59.7375 506.04376 58.909374Q505.2 58.08125 505.2 56.909374Q505.2 55.83125 505.9969 55.065624Q506.79376 54.3 507.96564 54.3Q509.16876 54.3 509.95 55.096874Q510.73126 55.878124 510.71564 57.128124ZM510.21564 56.628124Q510.075 55.815624 509.45 55.315624Q508.825 54.8 507.96564 54.8Q507.10626 54.8 506.48126 55.3Q505.85626 55.8 505.7 56.628124L510.21564 56.628124ZM513.2 54.471874L513.2 55.378124Q513.6375 54.83125 514.1375 54.565624Q514.6375 54.3 515.325 54.3Q516.0594 54.3 516.66876 54.64375Q517.29376 54.971874 517.6219 55.58125Q517.96564 56.190624 517.96564 56.8625Q517.96564 57.925 517.2 58.675Q516.45 59.425 515.34064 59.425Q514.0125 59.425 513.2 58.346874L513.2 61.315624L514.3875 61.315624Q514.575 61.315624 514.6375 61.378124Q514.71564 61.45625 514.71564 61.565624Q514.71564 61.675 514.6375 61.7375Q514.575 61.815624 514.3875 61.815624L512.04376 61.815624Q511.8719 61.815624 511.79376 61.7375Q511.71564 61.675 511.71564 61.565624Q511.71564 61.45625 511.79376 61.378124Q511.8719 61.315624 512.04376 61.315624L512.7 61.315624L512.7 54.971874L512.04376 54.971874Q511.8719 54.971874 511.79376 54.909374Q511.71564 54.83125 511.71564 54.721874Q511.71564 54.6125 511.79376 54.55Q511.8719 54.471874 512.04376 54.471874L513.2 54.471874ZM517.46564 56.8625Q517.46564 56.003124 516.84064 55.409374Q516.23126 54.8 515.34064 54.8Q514.4344 54.8 513.8094 55.409374Q513.2 56.01875 513.2 56.8625Q513.2 57.70625 513.8094 58.315624Q514.4344 58.925 515.34064 58.925Q516.21564 58.925 516.84064 58.33125Q517.46564 57.721874 517.46564 56.8625ZM523.46564 59.55L523.46564 58.846874Q522.3875 59.7375 521.16876 59.7375Q520.29376 59.7375 519.79376 59.3Q519.29376 58.846874 519.29376 58.190624Q519.29376 57.4875 519.95 56.95625Q520.60626 56.409374 521.8719 56.409374Q522.2 56.409374 522.59064 56.45625Q522.9969 56.503124 523.46564 56.596874L523.46564 55.8Q523.46564 55.39375 523.09064 55.096874Q522.71564 54.8 521.96564 54.8Q521.3875 54.8 520.35626 55.128124Q520.16876 55.190624 520.1219 55.190624Q520.02814 55.190624 519.95 55.128124Q519.8875 55.05 519.8875 54.940624Q519.8875 54.846874 519.95 54.784374Q520.02814 54.690624 520.60626 54.55Q521.52814 54.3 521.9969 54.3Q522.91876 54.3 523.4344 54.76875Q523.96564 55.221874 523.96564 55.8L523.96564 59.05L524.6219 59.05Q524.8094 59.05 524.8719 59.128124Q524.95 59.190624 524.95 59.3Q524.95 59.409374 524.8719 59.4875Q524.8094 59.55 524.6219 59.55L523.46564 59.55ZM523.46564 57.096874Q523.1219 57.003124 522.73126 56.95625Q522.34064 56.909374 521.91876 56.909374Q520.84064 56.909374 520.2469 57.3625Q519.79376 57.721874 519.79376 58.190624Q519.79376 58.64375 520.1375 58.95625Q520.48126 59.253124 521.15314 59.253124Q521.79376 59.253124 522.34064 59.003124Q522.8875 58.7375 523.46564 58.190624L523.46564 57.096874ZM528.46564 54.471874L528.46564 55.721874Q529.41876 54.846874 529.8875 54.596874Q530.3719 54.346874 530.77814 54.346874Q531.21564 54.346874 531.59064 54.64375Q531.98126 54.940624 531.98126 55.096874Q531.98126 55.20625 531.90314 55.284374Q531.825 55.346874 531.71564 55.346874Q531.66876 55.346874 531.6219 55.33125Q531.575 55.315624 531.46564 55.20625Q531.2625 55.003124 531.10626 54.925Q530.96564 54.846874 530.8094 54.846874Q530.4969 54.846874 530.02814 55.1125Q529.575 55.3625 528.46564 56.3625L528.46564 59.05L530.6375 59.05Q530.825 59.05 530.90314 59.128124Q530.98126 59.190624 530.98126 59.3Q530.98126 59.409374 530.90314 59.4875Q530.825 59.55 530.6375 59.55L526.77814 59.55Q526.60626 59.55 526.52814 59.4875Q526.45 59.409374 526.45 59.315624Q526.45 59.20625 526.52814 59.14375Q526.60626 59.08125 526.77814 59.08125L527.96564 59.08125L527.96564 54.971874L527.0594 54.971874Q526.8875 54.971874 526.8094 54.909374Q526.73126 54.83125 526.73126 54.721874Q526.73126 54.6125 526.8094 54.55Q526.8875 54.471874 527.0594 54.471874L528.46564 54.471874ZM538.71564 57.128124L533.7 57.128124Q533.825 58.08125 534.4969 58.675Q535.16876 59.253124 536.15314 59.253124Q536.71564 59.253124 537.3094 59.08125Q537.91876 58.89375 538.29376 58.58125Q538.40314 58.503124 538.4969 58.503124Q538.59064 58.503124 538.65314 58.58125Q538.73126 58.64375 538.73126 58.753124Q538.73126 58.846874 538.6375 58.940624Q538.35626 59.2375 537.6375 59.4875Q536.91876 59.7375 536.15314 59.7375Q534.8875 59.7375 534.04376 58.909374Q533.2 58.08125 533.2 56.909374Q533.2 55.83125 533.9969 55.065624Q534.79376 54.3 535.96564 54.3Q537.16876 54.3 537.95 55.096874Q538.73126 55.878124 538.71564 57.128124ZM538.21564 56.628124Q538.075 55.815624 537.45 55.315624Q536.825 54.8 535.96564 54.8Q535.10626 54.8 534.48126 55.3Q533.85626 55.8 533.7 56.628124L538.21564 56.628124ZM549.04376 54.471874L551.71564 54.471874Q551.8875 54.471874 551.96564 54.55Q552.04376 54.6125 552.04376 54.721874Q552.04376 54.83125 551.96564 54.909374Q551.8875 54.971874 551.71564 54.971874L549.04376 54.971874L549.04376 58.253124Q549.04376 58.675 549.3875 58.971874Q549.73126 59.253124 550.3875 59.253124Q550.8875 59.253124 551.46564 59.1125Q552.04376 58.95625 552.3719 58.76875Q552.48126 58.690624 552.5594 58.690624Q552.65314 58.690624 552.71564 58.76875Q552.79376 58.83125 552.79376 58.940624Q552.79376 59.01875 552.71564 59.096874Q552.52814 59.284374 551.8094 59.51875Q551.09064 59.7375 550.41876 59.7375Q549.5594 59.7375 549.04376 59.346874Q548.54376 58.940624 548.54376 58.253124L548.54376 54.971874L547.6375 54.971874Q547.46564 54.971874 547.3875 54.909374Q547.3094 54.83125 547.3094 54.721874Q547.3094 54.6125 547.3875 54.55Q547.46564 54.471874 547.6375 54.471874L548.54376 54.471874L548.54376 53.01875Q548.54376 52.846874 548.60626 52.76875Q548.6844 52.690624 548.79376 52.690624Q548.90314 52.690624 548.96564 52.76875Q549.04376 52.846874 549.04376 53.01875L549.04376 54.471874ZM556.46564 54.471874L556.46564 55.721874Q557.41876 54.846874 557.8875 54.596874Q558.3719 54.346874 558.77814 54.346874Q559.21564 54.346874 559.59064 54.64375Q559.98126 54.940624 559.98126 55.096874Q559.98126 55.20625 559.90314 55.284374Q559.825 55.346874 559.71564 55.346874Q559.66876 55.346874 559.6219 55.33125Q559.575 55.315624 559.46564 55.20625Q559.2625 55.003124 559.10626 54.925Q558.96564 54.846874 558.8094 54.846874Q558.4969 54.846874 558.02814 55.1125Q557.575 55.3625 556.46564 56.3625L556.46564 59.05L558.6375 59.05Q558.825 59.05 558.90314 59.128124Q558.98126 59.190624 558.98126 59.3Q558.98126 59.409374 558.90314 59.4875Q558.825 59.55 558.6375 59.55L554.77814 59.55Q554.60626 59.55 554.52814 59.4875Q554.45 59.409374 554.45 59.315624Q554.45 59.20625 554.52814 59.14375Q554.60626 59.08125 554.77814 59.08125L555.96564 59.08125L555.96564 54.971874L555.0594 54.971874Q554.8875 54.971874 554.8094 54.909374Q554.73126 54.83125 554.73126 54.721874Q554.73126 54.6125 554.8094 54.55Q554.8875 54.471874 555.0594 54.471874L556.46564 54.471874ZM565.46564 59.55L565.46564 58.846874Q564.3875 59.7375 563.16876 59.7375Q562.29376 59.7375 561.79376 59.3Q561.29376 58.846874 561.29376 58.190624Q561.29376 57.4875 561.95 56.95625Q562.60626 56.409374 563.8719 56.409374Q564.2 56.409374 564.59064 56.45625Q564.9969 56.503124 565.46564 56.596874L565.46564 55.8Q565.46564 55.39375 565.09064 55.096874Q564.71564 54.8 563.96564 54.8Q563.3875 54.8 562.35626 55.128124Q562.16876 55.190624 562.1219 55.190624Q562.02814 55.190624 561.95 55.128124Q561.8875 55.05 561.8875 54.940624Q561.8875 54.846874 561.95 54.784374Q562.02814 54.690624 562.60626 54.55Q563.52814 54.3 563.9969 54.3Q564.91876 54.3 565.4344 54.76875Q565.96564 55.221874 565.96564 55.8L565.96564 59.05L566.6219 59.05Q566.8094 59.05 566.8719 59.128124Q566.95 59.190624 566.95 59.3Q566.95 59.409374 566.8719 59.4875Q566.8094 59.55 566.6219 59.55L565.46564 59.55ZM565.46564 57.096874Q565.1219 57.003124 564.73126 56.95625Q564.34064 56.909374 563.91876 56.909374Q562.84064 56.909374 562.2469 57.3625Q561.79376 57.721874 561.79376 58.190624Q561.79376 58.64375 562.1375 58.95625Q562.48126 59.253124 563.15314 59.253124Q563.79376 59.253124 564.34064 59.003124Q564.8875 58.7375 565.46564 58.190624L565.46564 57.096874ZM571.29376 51.95625L571.29376 53.221874L570.575 53.221874L570.575 51.95625L571.29376 51.95625ZM571.3094 54.471874L571.3094 59.05L573.2469 59.05Q573.4344 59.05 573.4969 59.128124Q573.575 59.190624 573.575 59.3Q573.575 59.409374 573.4969 59.4875Q573.4344 59.55 573.2469 59.55L568.8875 59.55Q568.71564 59.55 568.6375 59.4875Q568.5594 59.409374 568.5594 59.3Q568.5594 59.190624 568.6375 59.128124Q568.71564 59.05 568.8875 59.05L570.825 59.05L570.825 54.971874L569.3875 54.971874Q569.21564 54.971874 569.1219 54.909374Q569.04376 54.83125 569.04376 54.721874Q569.04376 54.6125 569.1219 54.55Q569.2 54.471874 569.3875 54.471874L571.3094 54.471874ZM576.46564 54.471874L576.46564 55.221874Q576.98126 54.690624 577.3875 54.503124Q577.8094 54.3 578.325 54.3Q578.8875 54.3 579.35626 54.534374Q579.6844 54.721874 579.95 55.128124Q580.21564 55.534374 580.21564 55.95625L580.21564 59.05L580.6375 59.05Q580.8094 59.05 580.8875 59.128124Q580.96564 59.190624 580.96564 59.3Q580.96564 59.409374 580.8875 59.4875Q580.8094 59.55 580.6375 59.55L579.3094 59.55Q579.1375 59.55 579.0594 59.4875Q578.98126 59.409374 578.98126 59.3Q578.98126 59.190624 579.0594 59.128124Q579.1375 59.05 579.3094 59.05L579.73126 59.05L579.73126 56.034374Q579.73126 55.51875 579.34064 55.159374Q578.96564 54.8 578.325 54.8Q577.84064 54.8 577.48126 55.003124Q577.1219 55.190624 576.46564 55.971874L576.46564 59.05L577.0125 59.05Q577.2 59.05 577.2625 59.128124Q577.34064 59.190624 577.34064 59.3Q577.34064 59.409374 577.2625 59.4875Q577.2 59.55 577.0125 59.55L575.41876 59.55Q575.23126 59.55 575.15314 59.4875Q575.09064 59.409374 575.09064 59.3Q575.09064 59.190624 575.15314 59.128124Q575.23126 59.05 575.41876 59.05L575.96564 59.05L575.96564 54.971874L575.5594 54.971874Q575.3719 54.971874 575.29376 54.909374Q575.23126 54.83125 575.23126 54.721874Q575.23126 54.6125 575.29376 54.55Q575.3719 54.471874 575.5594 54.471874L576.46564 54.471874Z" fill-rule="nonzero"/><path fill="#9e9e9e" d="M550.29376 69.09688L550.29376 76.05L551.98126 76.05Q552.15314 76.05 552.23126 76.12813Q552.3094 76.19063 552.3094 76.3Q552.3094 76.40938 552.23126 76.4875Q552.15314 76.55 551.98126 76.55L548.1219 76.55Q547.9344 76.55 547.85626 76.4875Q547.79376 76.40938 547.79376 76.3Q547.79376 76.19063 547.85626 76.12813Q547.9344 76.05 548.1219 76.05L549.8094 76.05L549.8094 69.76875L548.2 70.28438Q548.075 70.31563 548.02814 70.31563Q547.9344 70.31563 547.85626 70.25313Q547.79376 70.175 547.79376 70.06563Q547.79376 69.9875 547.85626 69.90938Q547.90314 69.8625 548.04376 69.8L550.29376 69.09688ZM558.0594 72.7375Q558.6844 73.03438 558.9969 73.53438Q559.3094 74.01875 559.3094 74.58125Q559.3094 75.44063 558.65314 76.08125Q557.9969 76.72188 557.0594 76.72188Q556.1219 76.72188 555.46564 76.08125Q554.8094 75.44063 554.8094 74.58125Q554.8094 74.01875 555.1219 73.53438Q555.4344 73.03438 556.0594 72.7375Q555.5125 72.425 555.2625 72.09688Q554.9344 71.6125 554.9344 71.03438Q554.9344 70.2375 555.54376 69.62813Q556.16876 69.01875 557.0594 69.01875Q557.9344 69.01875 558.5594 69.62813Q559.1844 70.2375 559.1844 71.03438Q559.1844 71.6125 558.84064 72.08125Q558.60626 72.425 558.0594 72.7375ZM558.6844 71.06563Q558.6844 70.425 558.2 69.97188Q557.73126 69.51875 557.04376 69.51875Q556.3719 69.51875 555.8875 69.97188Q555.41876 70.425 555.41876 71.05Q555.41876 71.62813 555.8875 72.06563Q556.35626 72.4875 557.04376 72.4875Q557.7469 72.4875 558.21564 72.06563Q558.6844 71.62813 558.6844 71.06563ZM558.8094 74.58125Q558.8094 73.94063 558.3094 73.45625Q557.8094 72.97188 557.0594 72.97188Q556.3094 72.97188 555.79376 73.45625Q555.29376 73.94063 555.29376 74.58125Q555.29376 75.25313 555.79376 75.75313Q556.3094 76.2375 557.0594 76.2375Q557.79376 76.2375 558.29376 75.75313Q558.8094 75.25313 558.8094 74.58125ZM563.95 75.14375L564.15314 75.14375Q564.48126 75.14375 564.71564 75.37813Q564.95 75.59688 564.95 75.925Q564.95 76.26875 564.71564 76.50313Q564.48126 76.72188 564.15314 76.72188L563.95 76.72188Q563.6219 76.72188 563.3875 76.50313Q563.15314 76.26875 563.15314 75.94063Q563.15314 75.59688 563.3875 75.37813Q563.6219 75.14375 563.95 75.14375ZM573.075 72.39375Q572.6844 73.06563 572.15314 73.40938Q571.6375 73.7375 571.09064 73.7375Q570.575 73.7375 570.09064 73.45625Q569.6219 73.15938 569.34064 72.59688Q569.0594 72.01875 569.0594 71.40938Q569.0594 70.50313 569.6219 69.76875Q570.1844 69.01875 571.1219 69.01875Q571.79376 69.01875 572.34064 69.44063Q572.8875 69.84688 573.2 70.64375Q573.59064 71.65938 573.59064 73.00313Q573.59064 74.03438 573.2469 74.7375Q573.02814 75.20625 572.59064 75.64375Q572.16876 76.08125 571.6219 76.3625Q570.8875 76.72188 570.09064 76.72188Q569.5594 76.72188 569.23126 76.51875Q569.075 76.425 569.075 76.28438Q569.075 76.19063 569.1375 76.12813Q569.21564 76.05 569.325 76.05Q569.3875 76.05 569.52814 76.12813Q569.7469 76.2375 570.0594 76.2375Q571.29376 76.2375 572.1844 75.34688Q573.09064 74.44063 573.09064 73.08125Q573.09064 72.83125 573.075 72.39375ZM572.98126 71.56563Q572.66876 70.37813 572.2 69.95625Q571.7469 69.51875 571.1375 69.51875Q570.4969 69.51875 570.02814 70.05Q569.5594 70.56563 569.5594 71.39375Q569.5594 72.20625 570.02814 72.7375Q570.4969 73.25313 571.10626 73.25313Q571.45 73.25313 571.77814 73.06563Q572.1219 72.87813 572.41876 72.50313Q572.60626 72.25313 572.98126 71.56563ZM578.79376 70.59688Q578.79376 71.22188 578.35626 71.675Q577.91876 72.1125 577.29376 72.1125Q576.6844 72.1125 576.23126 71.675Q575.79376 71.22188 575.79376 70.59688Q575.79376 69.95625 576.23126 69.51875Q576.6844 69.08125 577.29376 69.08125Q577.91876 69.08125 578.35626 69.51875Q578.79376 69.95625 578.79376 70.59688ZM578.45 70.59688Q578.45 70.1125 578.10626 69.76875Q577.77814 69.425 577.29376 69.425Q576.825 69.425 576.48126 69.76875Q576.15314 70.1125 576.15314 70.59688Q576.15314 71.08125 576.48126 71.425Q576.825 71.76875 577.29376 71.76875Q577.77814 71.76875 578.10626 71.425Q578.45 71.08125 578.45 70.59688ZM580.3875 72.3L575.84064 73.78438Q575.7469 73.8 575.71564 73.8Q575.65314 73.8 575.59064 73.75313Q575.54376 73.70625 575.54376 73.62813Q575.54376 73.56563 575.59064 73.51875Q575.6219 73.47188 575.71564 73.44063L580.27814 71.95625Q580.35626 71.94063 580.40314 71.94063Q580.46564 71.94063 580.5125 72.00313Q580.575 72.05 580.575 72.1125Q580.575 72.175 580.52814 72.2375Q580.4969 72.26875 580.3875 72.3ZM580.3094 75.175Q580.3094 75.8 579.8719 76.25313Q579.4344 76.69063 578.8094 76.69063Q578.2 76.69063 577.7469 76.25313Q577.3094 75.8 577.3094 75.175Q577.3094 74.53438 577.7469 74.09688Q578.1844 73.64375 578.8094 73.64375Q579.4344 73.64375 579.8719 74.09688Q580.3094 74.53438 580.3094 75.175ZM579.96564 75.175Q579.96564 74.675 579.6219 74.34688Q579.27814 74.00313 578.8094 74.00313Q578.34064 74.00313 577.9969 74.34688Q577.66876 74.69063 577.66876 75.175Q577.66876 75.65938 577.9969 76.00313Q578.34064 76.33125 578.8094 76.33125Q579.27814 76.33125 579.6219 76.00313Q579.96564 75.65938 579.96564 75.175Z" fill-rule="nonzero"/><path stroke="#757575" stroke-width="1.0" stroke-linecap="butt" d="M581.45 65.05L472.95 65.05L394.04752 57.790104" fill-rule="nonzero"/><path fill="#9e9e9e" d="M396.04752 57.790104C396.04752 56.68553 395.15207 55.790104 394.04752 55.790104C392.94293 55.790104 392.04752 56.68553 392.04752 57.790104C392.04752 58.894672 392.94293 59.790104 394.04752 59.790104C395.15207 59.790104 396.04752 58.894672 396.04752 57.790104" fill-rule="nonzero"/></svg>